<svg width="23" height="28" viewBox="0 0 23 28" fill="none" xmlns="http://www.w3.org/2000/svg">
<path d="M11.3418 25.1646C13.6338 24.4557 15.5477 23.0559 17.0835 20.9653C18.6194 18.8746 19.5173 16.541 19.7772 13.9646H11.3418V2.8L2.83544 5.98987V13.3266C2.83544 13.492 2.85907 13.7046 2.90633 13.9646H11.3418V25.1646ZM10.881 27.9646C10.7392 27.9409 10.5975 27.9055 10.4557 27.8582C7.26582 26.7949 4.72574 24.8281 2.83544 21.9577C0.945148 19.0873 0 15.9976 0 12.6886V5.98987C0 5.39916 0.171544 4.86751 0.514633 4.39494C0.857721 3.92236 1.30052 3.57975 1.84304 3.36709L10.3494 0.177215C10.6802 0.0590717 11.011 0 11.3418 0C11.6726 0 12.0034 0.0590717 12.3342 0.177215L20.8405 3.36709C21.384 3.57975 21.8272 3.92236 22.1703 4.39494C22.5134 4.86751 22.6845 5.39916 22.6835 5.98987V12.6886C22.6835 15.9966 21.7384 19.0863 19.8481 21.9577C17.9578 24.829 15.4177 26.7959 12.2278 27.8582C12.0861 27.9055 11.9443 27.9409 11.8025 27.9646C11.6608 27.9882 11.5072 28 11.3418 28C11.1764 28 11.0228 27.9882 10.881 27.9646Z" fill="black"/>
</svg>
